<mxfile host="app.diagrams.net" agent="Mozilla/5.0 (Windows NT 10.0; Win64; x64; rv:134.0) Gecko/20100101 Firefox/134.0" version="26.0.5">
  <diagram name="PÃ¡gina-1" id="Jn7eiU2sVnly601iYzO0">
    <mxGraphModel dx="1434" dy="1915" grid="1" gridSize="10" guides="1" tooltips="1" connect="1" arrows="1" fold="1" page="1" pageScale="1" pageWidth="827" pageHeight="1169" math="0" shadow="0">
      <root>
        <mxCell id="0" />
        <mxCell id="1" parent="0" />
        <mxCell id="1u0-spQU6wzwzuRRe8lZ-3" value="&lt;div&gt;Request &lt;br&gt;&lt;/div&gt;&lt;div&gt;Use Cashback&lt;/div&gt;&lt;div&gt;UserId = 1&lt;br&gt;&lt;/div&gt;" style="ellipse;whiteSpace=wrap;html=1;" vertex="1" parent="1">
          <mxGeometry x="80" y="180" width="120" height="80" as="geometry" />
        </mxCell>
        <mxCell id="1u0-spQU6wzwzuRRe8lZ-5" value="" style="endArrow=classic;html=1;rounded=0;entryX=0;entryY=0.5;entryDx=0;entryDy=0;" edge="1" parent="1" target="1u0-spQU6wzwzuRRe8lZ-7">
          <mxGeometry width="50" height="50" relative="1" as="geometry">
            <mxPoint x="200" y="219.70999999999998" as="sourcePoint" />
            <mxPoint x="310" y="220" as="targetPoint" />
          </mxGeometry>
        </mxCell>
        <mxCell id="1u0-spQU6wzwzuRRe8lZ-6" value="-R$100" style="text;html=1;align=center;verticalAlign=middle;whiteSpace=wrap;rounded=0;" vertex="1" parent="1">
          <mxGeometry x="220" y="190" width="60" height="30" as="geometry" />
        </mxCell>
        <mxCell id="1u0-spQU6wzwzuRRe8lZ-7" value="&lt;div&gt;Get Cashback&amp;nbsp;&lt;/div&gt;&lt;div&gt;&lt;br&gt;&lt;/div&gt;&lt;div&gt;Cashback = R$100&lt;br&gt;&lt;/div&gt;" style="ellipse;whiteSpace=wrap;html=1;" vertex="1" parent="1">
          <mxGeometry x="314" y="180" width="120" height="80" as="geometry" />
        </mxCell>
        <mxCell id="1u0-spQU6wzwzuRRe8lZ-8" value="" style="endArrow=classic;html=1;rounded=0;entryX=0;entryY=0.5;entryDx=0;entryDy=0;" edge="1" parent="1" target="1u0-spQU6wzwzuRRe8lZ-9">
          <mxGeometry width="50" height="50" relative="1" as="geometry">
            <mxPoint x="434" y="220" as="sourcePoint" />
            <mxPoint x="544" y="220.29000000000002" as="targetPoint" />
          </mxGeometry>
        </mxCell>
        <mxCell id="1u0-spQU6wzwzuRRe8lZ-9" value="&lt;div&gt;Update Cashback&amp;nbsp;&lt;/div&gt;&lt;div&gt;&lt;br&gt;&lt;/div&gt;&lt;div&gt;Cashback = R$0,00&lt;br&gt;&lt;/div&gt;" style="ellipse;whiteSpace=wrap;html=1;" vertex="1" parent="1">
          <mxGeometry x="550" y="180" width="120" height="80" as="geometry" />
        </mxCell>
        <mxCell id="1u0-spQU6wzwzuRRe8lZ-10" value="" style="endArrow=none;dashed=1;html=1;dashPattern=1 3;strokeWidth=2;rounded=0;" edge="1" parent="1" target="1u0-spQU6wzwzuRRe8lZ-11">
          <mxGeometry width="50" height="50" relative="1" as="geometry">
            <mxPoint x="80" y="130" as="sourcePoint" />
            <mxPoint x="680" y="130" as="targetPoint" />
          </mxGeometry>
        </mxCell>
        <mxCell id="1u0-spQU6wzwzuRRe8lZ-11" value="Linha temporal" style="text;html=1;align=center;verticalAlign=middle;whiteSpace=wrap;rounded=0;" vertex="1" parent="1">
          <mxGeometry x="700" y="115" width="60" height="30" as="geometry" />
        </mxCell>
        <mxCell id="1u0-spQU6wzwzuRRe8lZ-12" value="." style="text;html=1;align=center;verticalAlign=middle;whiteSpace=wrap;rounded=0;" vertex="1" parent="1">
          <mxGeometry x="110" y="170" width="60" height="30" as="geometry" />
        </mxCell>
        <mxCell id="1u0-spQU6wzwzuRRe8lZ-13" value="" style="endArrow=none;dashed=1;html=1;dashPattern=1 3;strokeWidth=2;rounded=0;opacity=20;" edge="1" parent="1">
          <mxGeometry width="50" height="50" relative="1" as="geometry">
            <mxPoint x="140" y="530" as="sourcePoint" />
            <mxPoint x="139.71" y="130" as="targetPoint" />
          </mxGeometry>
        </mxCell>
        <mxCell id="1u0-spQU6wzwzuRRe8lZ-16" value="" style="endArrow=classic;html=1;rounded=0;" edge="1" parent="1" target="1u0-spQU6wzwzuRRe8lZ-19">
          <mxGeometry width="50" height="50" relative="1" as="geometry">
            <mxPoint x="368" y="260" as="sourcePoint" />
            <mxPoint x="420" y="350" as="targetPoint" />
            <Array as="points">
              <mxPoint x="368" y="350" />
              <mxPoint x="400" y="350" />
              <mxPoint x="420" y="350" />
            </Array>
          </mxGeometry>
        </mxCell>
        <mxCell id="1u0-spQU6wzwzuRRe8lZ-18" value="if request.cashback &amp;gt; db.cashback" style="edgeLabel;html=1;align=center;verticalAlign=middle;resizable=0;points=[];" vertex="1" connectable="0" parent="1u0-spQU6wzwzuRRe8lZ-16">
          <mxGeometry x="-0.4835" y="2" relative="1" as="geometry">
            <mxPoint as="offset" />
          </mxGeometry>
        </mxCell>
        <mxCell id="1u0-spQU6wzwzuRRe8lZ-19" value="Error" style="html=1;whiteSpace=wrap;strokeColor=#b85450;fillColor=#f8cecc;labelPosition=center;verticalLabelPosition=middle;verticalAlign=top;align=center;fontSize=12;outlineConnect=0;spacingTop=-6;sketch=0;shape=mxgraph.sitemap.error;" vertex="1" parent="1">
          <mxGeometry x="434" y="320" width="76" height="50" as="geometry" />
        </mxCell>
        <mxCell id="1u0-spQU6wzwzuRRe8lZ-20" value="&lt;div&gt;Request &lt;br&gt;&lt;/div&gt;&lt;div&gt;Use Cashback&lt;/div&gt;&lt;div&gt;UserId = 1&lt;br&gt;&lt;/div&gt;" style="ellipse;whiteSpace=wrap;html=1;" vertex="1" parent="1">
          <mxGeometry x="150" y="430" width="120" height="80" as="geometry" />
        </mxCell>
        <mxCell id="1u0-spQU6wzwzuRRe8lZ-21" value="" style="endArrow=classic;html=1;rounded=0;" edge="1" parent="1">
          <mxGeometry width="50" height="50" relative="1" as="geometry">
            <mxPoint x="270" y="469.71" as="sourcePoint" />
            <mxPoint x="380" y="470" as="targetPoint" />
          </mxGeometry>
        </mxCell>
        <mxCell id="1u0-spQU6wzwzuRRe8lZ-22" value="-R$100" style="text;html=1;align=center;verticalAlign=middle;whiteSpace=wrap;rounded=0;" vertex="1" parent="1">
          <mxGeometry x="290" y="440" width="60" height="30" as="geometry" />
        </mxCell>
        <mxCell id="1u0-spQU6wzwzuRRe8lZ-23" value="&lt;div&gt;Get Cashback&amp;nbsp;&lt;/div&gt;&lt;div&gt;&lt;br&gt;&lt;/div&gt;&lt;div&gt;Cashback = R$100&lt;br&gt;&lt;/div&gt;" style="ellipse;whiteSpace=wrap;html=1;" vertex="1" parent="1">
          <mxGeometry x="384" y="430" width="120" height="80" as="geometry" />
        </mxCell>
        <mxCell id="1u0-spQU6wzwzuRRe8lZ-24" value="" style="endArrow=classic;html=1;rounded=0;entryX=0;entryY=0.5;entryDx=0;entryDy=0;" edge="1" parent="1" target="1u0-spQU6wzwzuRRe8lZ-25">
          <mxGeometry width="50" height="50" relative="1" as="geometry">
            <mxPoint x="504" y="470" as="sourcePoint" />
            <mxPoint x="614" y="470.29" as="targetPoint" />
          </mxGeometry>
        </mxCell>
        <mxCell id="1u0-spQU6wzwzuRRe8lZ-25" value="&lt;div&gt;Update Cashback&amp;nbsp;&lt;/div&gt;&lt;div&gt;&lt;br&gt;&lt;/div&gt;&lt;div&gt;Cashback = R$0,00&lt;br&gt;&lt;/div&gt;" style="ellipse;whiteSpace=wrap;html=1;" vertex="1" parent="1">
          <mxGeometry x="620" y="430" width="120" height="80" as="geometry" />
        </mxCell>
        <mxCell id="1u0-spQU6wzwzuRRe8lZ-26" value="." style="text;html=1;align=center;verticalAlign=middle;whiteSpace=wrap;rounded=0;" vertex="1" parent="1">
          <mxGeometry x="180" y="420" width="60" height="30" as="geometry" />
        </mxCell>
        <mxCell id="1u0-spQU6wzwzuRRe8lZ-27" value="" style="endArrow=classic;html=1;rounded=0;" edge="1" parent="1">
          <mxGeometry width="50" height="50" relative="1" as="geometry">
            <mxPoint x="438" y="510" as="sourcePoint" />
            <mxPoint x="504" y="600" as="targetPoint" />
            <Array as="points">
              <mxPoint x="438" y="600" />
              <mxPoint x="470" y="600" />
            </Array>
          </mxGeometry>
        </mxCell>
        <mxCell id="1u0-spQU6wzwzuRRe8lZ-28" value="if request.cashback &amp;lt; db.cashback" style="edgeLabel;html=1;align=center;verticalAlign=middle;resizable=0;points=[];" vertex="1" connectable="0" parent="1u0-spQU6wzwzuRRe8lZ-27">
          <mxGeometry x="-0.4835" y="2" relative="1" as="geometry">
            <mxPoint as="offset" />
          </mxGeometry>
        </mxCell>
        <mxCell id="1u0-spQU6wzwzuRRe8lZ-29" value="Error" style="html=1;whiteSpace=wrap;strokeColor=#b85450;fillColor=#f8cecc;labelPosition=center;verticalLabelPosition=middle;verticalAlign=top;align=center;fontSize=12;outlineConnect=0;spacingTop=-6;sketch=0;shape=mxgraph.sitemap.error;" vertex="1" parent="1">
          <mxGeometry x="504" y="570" width="76" height="50" as="geometry" />
        </mxCell>
        <mxCell id="1u0-spQU6wzwzuRRe8lZ-32" value="" style="endArrow=none;dashed=1;html=1;dashPattern=1 3;strokeWidth=2;rounded=0;opacity=20;fillColor=#6d8764;strokeColor=#3A5431;" edge="1" parent="1">
          <mxGeometry width="50" height="50" relative="1" as="geometry">
            <mxPoint x="210" y="530" as="sourcePoint" />
            <mxPoint x="209.71" y="130" as="targetPoint" />
          </mxGeometry>
        </mxCell>
        <mxCell id="1u0-spQU6wzwzuRRe8lZ-34" value="." style="text;html=1;align=center;verticalAlign=middle;whiteSpace=wrap;rounded=0;" vertex="1" parent="1">
          <mxGeometry x="344" y="170" width="60" height="30" as="geometry" />
        </mxCell>
        <mxCell id="1u0-spQU6wzwzuRRe8lZ-35" value="" style="endArrow=none;dashed=1;html=1;dashPattern=1 3;strokeWidth=2;rounded=0;opacity=20;" edge="1" parent="1">
          <mxGeometry width="50" height="50" relative="1" as="geometry">
            <mxPoint x="374" y="530" as="sourcePoint" />
            <mxPoint x="373.71000000000004" y="130" as="targetPoint" />
          </mxGeometry>
        </mxCell>
        <mxCell id="1u0-spQU6wzwzuRRe8lZ-36" value="." style="text;html=1;align=center;verticalAlign=middle;whiteSpace=wrap;rounded=0;" vertex="1" parent="1">
          <mxGeometry x="414" y="420" width="60" height="30" as="geometry" />
        </mxCell>
        <mxCell id="1u0-spQU6wzwzuRRe8lZ-37" value="" style="endArrow=none;dashed=1;html=1;dashPattern=1 3;strokeWidth=2;rounded=0;opacity=20;fillColor=#6d8764;strokeColor=#3A5431;" edge="1" parent="1">
          <mxGeometry width="50" height="50" relative="1" as="geometry">
            <mxPoint x="444" y="530" as="sourcePoint" />
            <mxPoint x="443.71000000000004" y="130" as="targetPoint" />
          </mxGeometry>
        </mxCell>
        <mxCell id="1u0-spQU6wzwzuRRe8lZ-38" value="" style="endArrow=none;dashed=1;html=1;dashPattern=1 3;strokeWidth=2;rounded=0;opacity=20;" edge="1" parent="1">
          <mxGeometry width="50" height="50" relative="1" as="geometry">
            <mxPoint x="610" y="530" as="sourcePoint" />
            <mxPoint x="609.71" y="130" as="targetPoint" />
          </mxGeometry>
        </mxCell>
        <mxCell id="1u0-spQU6wzwzuRRe8lZ-39" value="" style="endArrow=none;dashed=1;html=1;dashPattern=1 3;strokeWidth=2;rounded=0;opacity=20;fillColor=#6d8764;strokeColor=#3A5431;" edge="1" parent="1">
          <mxGeometry width="50" height="50" relative="1" as="geometry">
            <mxPoint x="680" y="530" as="sourcePoint" />
            <mxPoint x="679.71" y="130" as="targetPoint" />
          </mxGeometry>
        </mxCell>
        <mxCell id="1u0-spQU6wzwzuRRe8lZ-40" value="User" style="shape=table;startSize=30;container=1;collapsible=1;childLayout=tableLayout;fixedRows=1;rowLines=0;fontStyle=1;align=center;resizeLast=1;html=1;" vertex="1" parent="1">
          <mxGeometry x="70" y="-150" width="100" height="150" as="geometry" />
        </mxCell>
        <mxCell id="1u0-spQU6wzwzuRRe8lZ-41" value="" style="shape=tableRow;horizontal=0;startSize=0;swimlaneHead=0;swimlaneBody=0;fillColor=none;collapsible=0;dropTarget=0;points=[[0,0.5],[1,0.5]];portConstraint=eastwest;top=0;left=0;right=0;bottom=1;" vertex="1" parent="1u0-spQU6wzwzuRRe8lZ-40">
          <mxGeometry y="30" width="100" height="30" as="geometry" />
        </mxCell>
        <mxCell id="1u0-spQU6wzwzuRRe8lZ-42" value="PK" style="shape=partialRectangle;connectable=0;fillColor=none;top=0;left=0;bottom=0;right=0;fontStyle=1;overflow=hidden;whiteSpace=wrap;html=1;" vertex="1" parent="1u0-spQU6wzwzuRRe8lZ-41">
          <mxGeometry width="30" height="30" as="geometry">
            <mxRectangle width="30" height="30" as="alternateBounds" />
          </mxGeometry>
        </mxCell>
        <mxCell id="1u0-spQU6wzwzuRRe8lZ-43" value="UniqueID" style="shape=partialRectangle;connectable=0;fillColor=none;top=0;left=0;bottom=0;right=0;align=left;spacingLeft=6;fontStyle=5;overflow=hidden;whiteSpace=wrap;html=1;" vertex="1" parent="1u0-spQU6wzwzuRRe8lZ-41">
          <mxGeometry x="30" width="70" height="30" as="geometry">
            <mxRectangle width="70" height="30" as="alternateBounds" />
          </mxGeometry>
        </mxCell>
        <mxCell id="1u0-spQU6wzwzuRRe8lZ-44" value="" style="shape=tableRow;horizontal=0;startSize=0;swimlaneHead=0;swimlaneBody=0;fillColor=none;collapsible=0;dropTarget=0;points=[[0,0.5],[1,0.5]];portConstraint=eastwest;top=0;left=0;right=0;bottom=0;" vertex="1" parent="1u0-spQU6wzwzuRRe8lZ-40">
          <mxGeometry y="60" width="100" height="30" as="geometry" />
        </mxCell>
        <mxCell id="1u0-spQU6wzwzuRRe8lZ-45" value="" style="shape=partialRectangle;connectable=0;fillColor=none;top=0;left=0;bottom=0;right=0;editable=1;overflow=hidden;whiteSpace=wrap;html=1;" vertex="1" parent="1u0-spQU6wzwzuRRe8lZ-44">
          <mxGeometry width="30" height="30" as="geometry">
            <mxRectangle width="30" height="30" as="alternateBounds" />
          </mxGeometry>
        </mxCell>
        <mxCell id="1u0-spQU6wzwzuRRe8lZ-46" value="Nome&lt;span style=&quot;white-space: pre;&quot;&gt;&#x9;&lt;/span&gt;" style="shape=partialRectangle;connectable=0;fillColor=none;top=0;left=0;bottom=0;right=0;align=left;spacingLeft=6;overflow=hidden;whiteSpace=wrap;html=1;" vertex="1" parent="1u0-spQU6wzwzuRRe8lZ-44">
          <mxGeometry x="30" width="70" height="30" as="geometry">
            <mxRectangle width="70" height="30" as="alternateBounds" />
          </mxGeometry>
        </mxCell>
        <mxCell id="1u0-spQU6wzwzuRRe8lZ-47" value="" style="shape=tableRow;horizontal=0;startSize=0;swimlaneHead=0;swimlaneBody=0;fillColor=none;collapsible=0;dropTarget=0;points=[[0,0.5],[1,0.5]];portConstraint=eastwest;top=0;left=0;right=0;bottom=0;" vertex="1" parent="1u0-spQU6wzwzuRRe8lZ-40">
          <mxGeometry y="90" width="100" height="30" as="geometry" />
        </mxCell>
        <mxCell id="1u0-spQU6wzwzuRRe8lZ-48" value="" style="shape=partialRectangle;connectable=0;fillColor=none;top=0;left=0;bottom=0;right=0;editable=1;overflow=hidden;whiteSpace=wrap;html=1;" vertex="1" parent="1u0-spQU6wzwzuRRe8lZ-47">
          <mxGeometry width="30" height="30" as="geometry">
            <mxRectangle width="30" height="30" as="alternateBounds" />
          </mxGeometry>
        </mxCell>
        <mxCell id="1u0-spQU6wzwzuRRe8lZ-49" value="Telefone&lt;span style=&quot;white-space: pre;&quot;&gt;&#x9;&lt;/span&gt;" style="shape=partialRectangle;connectable=0;fillColor=none;top=0;left=0;bottom=0;right=0;align=left;spacingLeft=6;overflow=hidden;whiteSpace=wrap;html=1;" vertex="1" parent="1u0-spQU6wzwzuRRe8lZ-47">
          <mxGeometry x="30" width="70" height="30" as="geometry">
            <mxRectangle width="70" height="30" as="alternateBounds" />
          </mxGeometry>
        </mxCell>
        <mxCell id="1u0-spQU6wzwzuRRe8lZ-50" value="" style="shape=tableRow;horizontal=0;startSize=0;swimlaneHead=0;swimlaneBody=0;fillColor=none;collapsible=0;dropTarget=0;points=[[0,0.5],[1,0.5]];portConstraint=eastwest;top=0;left=0;right=0;bottom=0;" vertex="1" parent="1u0-spQU6wzwzuRRe8lZ-40">
          <mxGeometry y="120" width="100" height="30" as="geometry" />
        </mxCell>
        <mxCell id="1u0-spQU6wzwzuRRe8lZ-51" value="" style="shape=partialRectangle;connectable=0;fillColor=none;top=0;left=0;bottom=0;right=0;editable=1;overflow=hidden;whiteSpace=wrap;html=1;" vertex="1" parent="1u0-spQU6wzwzuRRe8lZ-50">
          <mxGeometry width="30" height="30" as="geometry">
            <mxRectangle width="30" height="30" as="alternateBounds" />
          </mxGeometry>
        </mxCell>
        <mxCell id="1u0-spQU6wzwzuRRe8lZ-52" value="Saldo" style="shape=partialRectangle;connectable=0;fillColor=none;top=0;left=0;bottom=0;right=0;align=left;spacingLeft=6;overflow=hidden;whiteSpace=wrap;html=1;" vertex="1" parent="1u0-spQU6wzwzuRRe8lZ-50">
          <mxGeometry x="30" width="70" height="30" as="geometry">
            <mxRectangle width="70" height="30" as="alternateBounds" />
          </mxGeometry>
        </mxCell>
        <mxCell id="1u0-spQU6wzwzuRRe8lZ-53" value="" style="endArrow=blockThin;html=1;strokeColor=#d20a0a;bendable=1;rounded=0;endFill=1;endSize=4;edgeStyle=entityRelationEdgeStyle;startArrow=blockThin;startFill=1;startSize=4;jumpStyle=none;jumpSize=0;targetPerimeterSpacing=15;strokeWidth=1.5;" edge="1" parent="1">
          <mxGeometry width="50" height="50" relative="1" as="geometry">
            <mxPoint x="374" y="145" as="sourcePoint" />
            <mxPoint x="444" y="145" as="targetPoint" />
          </mxGeometry>
        </mxCell>
        <mxCell id="1u0-spQU6wzwzuRRe8lZ-54" value="" style="endArrow=blockThin;html=1;strokeColor=#d20a0a;bendable=1;rounded=0;endFill=1;endSize=4;edgeStyle=entityRelationEdgeStyle;startArrow=blockThin;startFill=1;startSize=4;jumpStyle=none;jumpSize=0;targetPerimeterSpacing=15;strokeWidth=1.5;" edge="1" parent="1">
          <mxGeometry width="50" height="50" relative="1" as="geometry">
            <mxPoint x="610" y="145" as="sourcePoint" />
            <mxPoint x="680" y="145" as="targetPoint" />
            <Array as="points">
              <mxPoint x="686" y="140" />
            </Array>
          </mxGeometry>
        </mxCell>
        <mxCell id="1u0-spQU6wzwzuRRe8lZ-56" value="" style="rounded=0;whiteSpace=wrap;html=1;" vertex="1" parent="1">
          <mxGeometry x="420" y="-150" width="346" height="260" as="geometry" />
        </mxCell>
        <mxCell id="1u0-spQU6wzwzuRRe8lZ-59" value="&lt;div&gt;Esta seta representa o que eu entendo como &quot;Zona nÃ£o confiÃ¡vel&quot; . O processo de cashback Ã© simples, basta verificar o saldo do cliente, verificar se o valor a ser subtraÃ­do nÃ£o Ã© maior que o saldo do cliente, caso nÃ£o seja, subtrair e atualizar no banco de dados. PorÃ©m, caso haja 2 requisiÃ§Ãµes em um curto espaÃ§o de tempo, pode ocorrer problemas nas zonas crÃ­ticas, pois o valor do saldo do cliente nÃ£o Ã© consistente, resultando na possibilidade do cliente utilizar o saldo 2 vezes. &lt;br&gt;&lt;/div&gt;&lt;div&gt;&lt;br&gt;&lt;/div&gt;&lt;div&gt;Analogamente, caso haja 2 requisiÃ§Ãµes para adicionar saldo para o cliente, pode ocorrer das 2 requisiÃ§Ãµes buscarem o mesmo valor na zona crÃ­tica de GET, e acabar somando apenas 1 dos 2 valores enviados na requisiÃ§Ã£o.&lt;br&gt;&lt;/div&gt;" style="text;html=1;align=center;verticalAlign=middle;whiteSpace=wrap;rounded=0;" vertex="1" parent="1">
          <mxGeometry x="443" y="-135" width="300" height="230" as="geometry" />
        </mxCell>
        <mxCell id="1u0-spQU6wzwzuRRe8lZ-61" value="" style="endArrow=blockThin;html=1;strokeColor=#d20a0a;bendable=1;rounded=0;endFill=1;endSize=4;edgeStyle=entityRelationEdgeStyle;startArrow=blockThin;startFill=1;startSize=4;jumpStyle=none;jumpSize=0;targetPerimeterSpacing=15;strokeWidth=1.5;" edge="1" parent="1">
          <mxGeometry width="50" height="50" relative="1" as="geometry">
            <mxPoint x="558" y="-140" as="sourcePoint" />
            <mxPoint x="628" y="-140" as="targetPoint" />
            <Array as="points">
              <mxPoint x="694" y="-455" />
              <mxPoint x="628" y="-140" />
            </Array>
          </mxGeometry>
        </mxCell>
        <mxCell id="1u0-spQU6wzwzuRRe8lZ-62" value="" style="whiteSpace=wrap;html=1;aspect=fixed;" vertex="1" parent="1">
          <mxGeometry x="194" y="-150" width="210" height="210" as="geometry" />
        </mxCell>
        <mxCell id="1u0-spQU6wzwzuRRe8lZ-63" value="&lt;div&gt;As chances de um usuÃ¡rio realizar vÃ¡rias compras ao mesmo tempo Ã© baixa. PorÃ©m, Ã© preciso considerar que o nosso e-commerce nÃ£o possui sistema de LOG&#39;S. &lt;br&gt;&lt;/div&gt;&lt;div&gt;Portanto, caso algum usuÃ¡rio perceba que existe uma vulnerabilidade de concorrÃªncia, ele pode sobrecarregar nosso sistema com requisiÃ§Ãµes de purchase para gerar vÃ¡rios boletos com desconto de cashback, mesmo que nÃ£o tenha saldo suficiente para isso, sem que percebamos de imediato.&lt;br&gt;&lt;/div&gt;" style="text;html=1;align=center;verticalAlign=middle;whiteSpace=wrap;rounded=0;" vertex="1" parent="1">
          <mxGeometry x="196" y="-150" width="206" height="210" as="geometry" />
        </mxCell>
      </root>
    </mxGraphModel>
  </diagram>
</mxfile>
